<svg xmlns="http://www.w3.org/2000/svg" viewBox="0 0 640 300" role="img" aria-label="Melody and accompaniment piano roll"><rect x="0" y="290.26" width="640" height="3.74" fill="#273447" opacity=".025"/><rect x="0" y="282.78" width="640" height="3.74" fill="#273447" opacity=".025"/><rect x="0" y="271.56" width="640" height="3.74" fill="#273447" opacity=".025"/><rect x="0" y="264.08" width="640" height="3.74" fill="#273447" opacity=".025"/><rect x="0" y="256.60" width="640" height="3.74" fill="#273447" opacity=".025"/><path d="M0 249.12H640" stroke="#273447" opacity=".08" stroke-width=".8"/><rect x="0" y="245.38" width="640" height="3.74" fill="#273447" opacity=".025"/><rect x="0" y="237.90" width="640" height="3.74" fill="#273447" opacity=".025"/><rect x="0" y="226.68" width="640" height="3.74" fill="#273447" opacity=".025"/><rect x="0" y="219.19" width="640" height="3.74" fill="#273447" opacity=".025"/><rect x="0" y="211.71" width="640" height="3.74" fill="#273447" opacity=".025"/><path d="M0 204.23H640" stroke="#273447" opacity=".08" stroke-width=".8"/><rect x="0" y="200.49" width="640" height="3.74" fill="#273447" opacity=".025"/><rect x="0" y="193.01" width="640" height="3.74" fill="#273447" opacity=".025"/><rect x="0" y="181.79" width="640" height="3.74" fill="#273447" opacity=".025"/><rect x="0" y="174.31" width="640" height="3.74" fill="#273447" opacity=".025"/><rect x="0" y="166.83" width="640" height="3.74" fill="#273447" opacity=".025"/><path d="M0 159.35H640" stroke="#273447" opacity=".08" stroke-width=".8"/><rect x="0" y="155.61" width="640" height="3.74" fill="#273447" opacity=".025"/><rect x="0" y="148.13" width="640" height="3.74" fill="#273447" opacity=".025"/><rect x="0" y="136.91" width="640" height="3.74" fill="#273447" opacity=".025"/><rect x="0" y="129.43" width="640" height="3.74" fill="#273447" opacity=".025"/><rect x="0" y="121.95" width="640" height="3.74" fill="#273447" opacity=".025"/><path d="M0 114.47H640" stroke="#273447" opacity=".08" stroke-width=".8"/><rect x="0" y="110.73" width="640" height="3.74" fill="#273447" opacity=".025"/><rect x="0" y="103.25" width="640" height="3.74" fill="#273447" opacity=".025"/><rect x="0" y="92.03" width="640" height="3.74" fill="#273447" opacity=".025"/><rect x="0" y="84.55" width="640" height="3.74" fill="#273447" opacity=".025"/><rect x="0" y="77.06" width="640" height="3.74" fill="#273447" opacity=".025"/><path d="M0 69.58H640" stroke="#273447" opacity=".08" stroke-width=".8"/><rect x="0" y="65.84" width="640" height="3.74" fill="#273447" opacity=".025"/><rect x="0" y="58.36" width="640" height="3.74" fill="#273447" opacity=".025"/><rect x="0" y="47.14" width="640" height="3.74" fill="#273447" opacity=".025"/><rect x="0" y="39.66" width="640" height="3.74" fill="#273447" opacity=".025"/><rect x="0" y="32.18" width="640" height="3.74" fill="#273447" opacity=".025"/><path d="M0 24.70H640" stroke="#273447" opacity=".08" stroke-width=".8"/><rect x="0" y="20.96" width="640" height="3.74" fill="#273447" opacity=".025"/><rect x="0" y="13.48" width="640" height="3.74" fill="#273447" opacity=".025"/><path d="M0.00 0V300" stroke="#273447" opacity=".13" stroke-width=".8"/><path d="M19.98 0V300" stroke="#273447" opacity=".05" stroke-width=".8"/><path d="M39.97 0V300" stroke="#273447" opacity=".05" stroke-width=".8"/><path d="M59.95 0V300" stroke="#273447" opacity=".05" stroke-width=".8"/><path d="M79.93 0V300" stroke="#273447" opacity=".13" stroke-width=".8"/><path d="M99.92 0V300" stroke="#273447" opacity=".05" stroke-width=".8"/><path d="M119.90 0V300" stroke="#273447" opacity=".05" stroke-width=".8"/><path d="M139.89 0V300" stroke="#273447" opacity=".05" stroke-width=".8"/><path d="M159.87 0V300" stroke="#273447" opacity=".13" stroke-width=".8"/><path d="M179.85 0V300" stroke="#273447" opacity=".05" stroke-width=".8"/><path d="M199.84 0V300" stroke="#273447" opacity=".05" stroke-width=".8"/><path d="M219.82 0V300" stroke="#273447" opacity=".05" stroke-width=".8"/><path d="M239.80 0V300" stroke="#273447" opacity=".13" stroke-width=".8"/><path d="M259.79 0V300" stroke="#273447" opacity=".05" stroke-width=".8"/><path d="M279.77 0V300" stroke="#273447" opacity=".05" stroke-width=".8"/><path d="M299.76 0V300" stroke="#273447" opacity=".05" stroke-width=".8"/><path d="M319.74 0V300" stroke="#273447" opacity=".13" stroke-width=".8"/><path d="M339.72 0V300" stroke="#273447" opacity=".05" stroke-width=".8"/><path d="M359.71 0V300" stroke="#273447" opacity=".05" stroke-width=".8"/><path d="M379.69 0V300" stroke="#273447" opacity=".05" stroke-width=".8"/><path d="M399.67 0V300" stroke="#273447" opacity=".13" stroke-width=".8"/><path d="M419.66 0V300" stroke="#273447" opacity=".05" stroke-width=".8"/><path d="M439.64 0V300" stroke="#273447" opacity=".05" stroke-width=".8"/><path d="M459.62 0V300" stroke="#273447" opacity=".05" stroke-width=".8"/><path d="M479.61 0V300" stroke="#273447" opacity=".13" stroke-width=".8"/><path d="M499.59 0V300" stroke="#273447" opacity=".05" stroke-width=".8"/><path d="M519.58 0V300" stroke="#273447" opacity=".05" stroke-width=".8"/><path d="M539.56 0V300" stroke="#273447" opacity=".05" stroke-width=".8"/><path d="M559.54 0V300" stroke="#273447" opacity=".13" stroke-width=".8"/><path d="M579.53 0V300" stroke="#273447" opacity=".05" stroke-width=".8"/><path d="M599.51 0V300" stroke="#273447" opacity=".05" stroke-width=".8"/><path d="M619.49 0V300" stroke="#273447" opacity=".05" stroke-width=".8"/><path d="M639.48 0V300" stroke="#273447" opacity=".13" stroke-width=".8"/><path d="M64.95 178.05h1.80v2.99H64.95ZM66.61 230.42h1.80v2.99H66.61ZM68.28 204.23h1.80v2.99H68.28ZM69.94 185.53h1.80v2.99H69.94ZM71.61 178.05h1.80v2.99H71.61ZM73.27 230.42h1.80v2.99H73.27ZM74.94 204.23h1.80v2.99H74.94ZM76.60 185.53h1.80v2.99H76.60ZM78.27 178.05h1.80v2.99H78.27ZM79.93 204.23h1.80v2.99H79.93ZM81.60 185.53h1.80v2.99H81.60ZM83.27 170.57h1.80v2.99H83.27ZM84.93 159.35h1.80v2.99H84.93ZM101.58 185.53h1.80v2.99H101.58ZM103.25 170.57h1.80v2.99H103.25ZM104.91 159.35h3.33v2.99H104.91ZM108.24 185.53h1.80v2.99H108.24ZM109.91 170.57h1.80v2.99H109.91ZM111.58 159.35h1.80v2.99H111.58ZM128.23 189.27h1.80v2.99H128.23ZM129.89 163.09h1.80v2.99H129.89ZM131.56 178.05h1.80v2.99H131.56ZM139.89 230.42h1.80v2.99H139.89ZM141.55 204.23h1.80v2.99H141.55ZM143.22 185.53h1.80v2.99H143.22ZM144.88 178.05h1.80v2.99H144.88ZM146.55 230.42h1.80v2.99H146.55ZM148.21 204.23h1.80v2.99H148.21ZM149.88 185.53h1.80v2.99H149.88ZM151.54 178.05h3.33v2.99H151.54ZM154.87 204.23h1.80v2.99H154.87ZM156.54 185.53h1.80v2.99H156.54ZM158.20 178.05h1.80v2.99H158.20ZM159.87 230.42h1.80v2.99H159.87ZM161.53 204.23h1.80v2.99H161.53ZM163.20 185.53h1.80v2.99H163.20ZM164.87 178.05h3.33v2.99H164.87ZM168.20 204.23h1.80v2.99H168.20ZM169.86 185.53h1.80v2.99H169.86ZM171.53 178.05h3.33v2.99H171.53ZM174.86 204.23h1.80v2.99H174.86ZM176.52 185.53h1.80v2.99H176.52ZM178.19 178.05h3.33v2.99H178.19ZM181.52 204.23h1.80v2.99H181.52ZM183.18 185.53h1.80v2.99H183.18ZM184.85 178.05h1.80v2.99H184.85ZM186.51 230.42h6.66v2.99H186.51ZM186.51 185.53h6.66v2.99H186.51ZM193.18 222.94h6.66v2.99H193.18ZM193.18 178.05h6.66v2.99H193.18ZM199.84 215.45h6.66v2.99H199.84ZM199.84 170.57h6.66v2.99H199.84ZM206.50 196.75h6.66v2.99H206.50ZM206.50 170.57h6.66v2.99H206.50ZM213.16 189.27h6.66v2.99H213.16ZM213.16 170.57h6.66v2.99H213.16ZM213.16 151.87h6.66v2.99H213.16ZM219.82 196.75h6.66v2.99H219.82ZM219.82 170.57h6.66v2.99H219.82ZM219.82 159.35h6.66v2.99H219.82ZM226.48 207.97h6.66v2.99H226.48ZM226.48 170.57h6.66v2.99H226.48ZM233.14 204.23h6.66v2.99H233.14ZM233.14 178.05h6.66v2.99H233.14ZM239.80 230.42h26.64v2.99H239.80ZM246.47 204.23h13.32v2.99H246.47ZM246.47 185.53h13.32v2.99H246.47ZM259.79 204.23h6.66v2.99H259.79ZM259.79 185.53h6.66v2.99H259.79ZM266.45 230.42h26.64v2.99H266.45ZM273.11 204.23h13.32v2.99H273.11ZM273.11 185.53h13.32v2.99H273.11ZM286.43 204.23h6.66v2.99H286.43ZM286.43 185.53h6.66v2.99H286.43ZM293.09 196.75h6.66v2.99H293.09ZM299.76 189.27h9.99v2.99H299.76ZM309.75 234.16h3.33v2.99H309.75ZM313.08 230.42h3.33v2.99H313.08ZM316.41 241.64h3.33v2.99H316.41ZM319.74 230.42h13.32v2.99H319.74ZM333.06 230.42h13.32v2.99H333.06ZM339.72 204.23h6.66v2.99H339.72ZM339.72 185.53h6.66v2.99H339.72ZM346.38 230.42h19.98v2.99H346.38ZM346.38 204.23h19.98v2.99H346.38ZM346.38 185.53h19.98v2.99H346.38ZM366.37 230.42h6.66v2.99H366.37ZM366.37 204.23h6.66v2.99H366.37ZM366.37 185.53h6.66v2.99H366.37ZM373.03 230.42h13.32v2.99H373.03ZM373.03 204.23h13.32v2.99H373.03ZM373.03 185.53h13.32v2.99H373.03ZM386.35 230.42h6.66v2.99H386.35ZM386.35 204.23h6.66v2.99H386.35ZM386.35 185.53h6.66v2.99H386.35ZM393.01 230.42h6.66v2.99H393.01ZM393.01 204.23h6.66v2.99H393.01ZM393.01 185.53h6.66v2.99H393.01ZM399.67 185.53h6.66v2.99H399.67ZM406.33 159.35h6.66v2.99H406.33ZM406.33 144.39h6.66v2.99H406.33ZM413.00 185.53h6.66v2.99H413.00ZM419.66 159.35h6.66v2.99H419.66ZM419.66 144.39h6.66v2.99H419.66ZM426.32 185.53h6.66v2.99H426.32ZM432.98 159.35h6.66v2.99H432.98ZM432.98 144.39h6.66v2.99H432.98ZM439.64 185.53h6.66v2.99H439.64ZM446.30 159.35h6.66v2.99H446.30ZM446.30 144.39h6.66v2.99H446.30ZM452.96 196.75h6.66v2.99H452.96ZM459.62 170.57h6.66v2.99H459.62ZM459.62 159.35h6.66v2.99H459.62ZM466.29 196.75h6.66v2.99H466.29ZM472.95 170.57h6.66v2.99H472.95ZM472.95 159.35h6.66v2.99H472.95ZM479.61 196.75h6.66v2.99H479.61ZM486.27 170.57h6.66v2.99H486.27ZM486.27 159.35h6.66v2.99H486.27ZM492.93 196.75h6.66v2.99H492.93ZM499.59 170.57h6.66v2.99H499.59ZM499.59 159.35h6.66v2.99H499.59ZM506.25 196.75h6.66v2.99H506.25ZM512.91 170.57h6.66v2.99H512.91ZM512.91 159.35h6.66v2.99H512.91ZM519.58 196.75h6.66v2.99H519.58ZM526.24 170.57h6.66v2.99H526.24ZM526.24 159.35h6.66v2.99H526.24ZM532.90 196.75h6.66v2.99H532.90ZM539.56 170.57h6.66v2.99H539.56ZM539.56 159.35h6.66v2.99H539.56ZM546.22 196.75h6.66v2.99H546.22ZM552.88 170.57h6.66v2.99H552.88ZM552.88 159.35h6.66v2.99H552.88ZM559.54 178.05h6.66v2.99H559.54ZM566.20 196.75h13.32v2.99H566.20ZM566.20 185.53h13.32v2.99H566.20ZM566.20 170.57h13.32v2.99H566.20ZM579.53 196.75h6.66v2.99H579.53ZM586.19 204.23h5.00v2.99H586.19Z" fill="#c5824a"/><path d="M0.00 114.47h3.33v2.99H0.00ZM1.67 106.99h1.80v2.99H1.67ZM3.33 99.51h3.33v2.99H3.33ZM6.66 114.47h1.80v2.99H6.66ZM8.33 125.69h3.33v2.99H8.33ZM13.32 106.99h3.33v2.99H13.32ZM16.65 118.21h3.33v2.99H16.65ZM19.98 133.17h1.80v2.99H19.98ZM21.65 144.39h1.80v2.99H21.65ZM26.64 118.21h3.33v2.99H26.64ZM29.98 125.69h3.33v2.99H29.98ZM33.31 140.65h1.80v2.99H33.31ZM34.97 159.35h3.33v2.99H34.97ZM39.97 133.17h3.33v2.99H39.97ZM43.30 144.39h6.66v2.99H43.30ZM53.29 151.87h3.33v2.99H53.29ZM56.62 144.39h1.80v2.99H56.62ZM56.62 140.65h3.33v2.99H56.62ZM63.28 114.47h3.33v2.99H63.28ZM66.61 118.21h1.80v2.99H66.61ZM68.28 114.47h1.80v2.99H68.28ZM69.94 133.17h3.33v2.99H69.94ZM76.60 140.65h3.33v2.99H76.60ZM79.93 144.39h1.80v2.99H79.93ZM81.60 140.65h8.33v2.99H81.60ZM89.93 114.47h3.33v2.99H89.93ZM93.26 118.21h3.33v2.99H93.26ZM94.92 125.69h1.80v2.99H94.92ZM96.59 133.17h6.66v2.99H96.59ZM106.58 114.47h3.33v2.99H106.58ZM109.91 106.99h1.80v2.99H109.91ZM109.91 99.51h3.33v2.99H109.91ZM113.24 114.47h3.33v2.99H113.24ZM114.91 125.69h3.33v2.99H114.91ZM119.90 106.99h3.33v2.99H119.90ZM123.23 118.21h3.33v2.99H123.23ZM126.56 133.17h1.80v2.99H126.56ZM128.23 144.39h3.33v2.99H128.23ZM133.22 118.21h3.33v2.99H133.22ZM136.56 125.69h3.33v2.99H136.56ZM139.89 140.65h1.80v2.99H139.89ZM141.55 159.35h3.33v2.99H141.55ZM146.55 133.17h3.33v2.99H146.55ZM149.88 144.39h6.66v2.99H149.88ZM159.87 151.87h1.80v2.99H159.87ZM161.53 144.39h1.80v2.99H161.53ZM163.20 140.65h5.00v2.99H163.20ZM169.86 133.17h3.33v2.99H169.86ZM173.19 140.65h1.80v2.99H173.19ZM174.86 133.17h1.80v2.99H174.86ZM176.52 144.39h3.33v2.99H176.52ZM179.85 133.17h3.33v2.99H179.85ZM183.18 114.47h3.33v2.99H183.18ZM186.51 99.51h3.33v2.99H186.51ZM189.84 106.99h3.33v2.99H189.84ZM194.84 106.99h1.80v2.99H194.84ZM196.51 106.99h6.66v2.99H196.51ZM201.50 114.47h1.80v2.99H201.50ZM203.17 114.47h13.32v2.99H203.17ZM216.49 125.69h5.00v2.99H216.49ZM221.49 118.21h1.80v2.99H221.49ZM223.15 114.47h3.33v2.99H223.15ZM226.48 118.21h1.80v2.99H226.48ZM228.15 125.69h1.80v2.99H228.15ZM229.81 133.17h3.33v2.99H229.81ZM233.14 99.51h1.80v2.99H233.14ZM236.47 99.51h6.66v2.99H236.47ZM243.13 106.99h5.00v2.99H243.13ZM248.13 99.51h1.80v2.99H248.13ZM249.80 95.77h3.33v2.99H249.80ZM253.13 99.51h1.80v2.99H253.13ZM254.79 106.99h1.80v2.99H254.79ZM256.46 114.47h3.33v2.99H256.46ZM259.79 106.99h3.33v2.99H259.79ZM263.12 133.17h5.00v2.99H263.12ZM269.78 140.65h5.00v2.99H269.78ZM274.78 133.17h1.80v2.99H274.78ZM276.44 125.69h3.33v2.99H276.44ZM279.77 133.17h1.80v2.99H279.77ZM281.44 140.65h1.80v2.99H281.44ZM283.10 144.39h3.33v2.99H283.10ZM286.43 133.17h3.33v2.99H286.43ZM289.76 114.47h1.80v2.99H289.76ZM293.09 114.47h3.33v2.99H293.09ZM296.42 118.21h6.66v2.99H296.42ZM303.09 125.69h5.00v2.99H303.09ZM308.08 118.21h3.33v2.99H308.08ZM309.75 114.47h3.33v2.99H309.75ZM316.41 106.99h1.80v2.99H316.41ZM318.07 99.51h3.33v2.99H318.07ZM319.74 106.99h1.80v2.99H319.74ZM321.40 114.47h1.80v2.99H321.40ZM323.07 125.69h3.33v2.99H323.07ZM324.73 114.47h3.33v2.99H324.73ZM329.73 99.51h3.33v2.99H329.73ZM333.06 88.29h1.80v2.99H333.06ZM336.39 106.99h3.33v2.99H336.39ZM339.72 114.47h1.80v2.99H339.72ZM344.72 106.99h1.80v2.99H344.72ZM346.38 106.99h1.80v2.99H346.38ZM346.38 99.51h1.80v2.99H346.38ZM348.05 114.47h1.80v2.99H348.05ZM349.71 125.69h3.33v2.99H349.71ZM351.38 114.47h5.00v2.99H351.38ZM356.38 99.51h1.80v2.99H356.38ZM358.04 88.29h3.33v2.99H358.04ZM363.04 106.99h1.80v2.99H363.04ZM364.70 114.47h3.33v2.99H364.70ZM369.70 106.99h1.80v2.99H369.70ZM371.36 99.51h1.80v2.99H371.36ZM373.03 106.99h1.80v2.99H373.03ZM374.69 114.47h1.80v2.99H374.69ZM376.36 125.69h1.80v2.99H376.36ZM378.02 114.47h5.00v2.99H378.02ZM383.02 99.51h1.80v2.99H383.02ZM384.69 88.29h1.80v2.99H384.69ZM389.68 80.81h3.33v2.99H389.68ZM391.35 88.29h3.33v2.99H391.35ZM396.34 88.29h1.80v2.99H396.34ZM398.01 69.58h5.00v2.99H398.01ZM403.00 73.32h3.33v2.99H403.00ZM404.67 88.29h5.00v2.99H404.67ZM409.67 99.51h3.33v2.99H409.67ZM411.33 88.29h3.33v2.99H411.33ZM416.33 106.99h3.33v2.99H416.33ZM422.99 106.99h1.80v2.99H422.99ZM424.65 99.51h1.80v2.99H424.65ZM426.32 106.99h1.80v2.99H426.32ZM427.98 114.47h1.80v2.99H427.98ZM429.65 125.69h1.80v2.99H429.65ZM431.31 114.47h5.00v2.99H431.31ZM436.31 99.51h1.80v2.99H436.31ZM437.98 88.29h5.00v2.99H437.98ZM442.97 106.99h1.80v2.99H442.97ZM444.64 114.47h3.33v2.99H444.64ZM449.63 114.47h1.80v2.99H449.63ZM452.96 106.99h1.80v2.99H452.96ZM454.63 99.51h1.80v2.99H454.63ZM456.29 95.77h3.33v2.99H456.29ZM457.96 99.51h5.00v2.99H457.96ZM462.95 106.99h1.80v2.99H462.95ZM464.62 118.21h5.00v2.99H464.62ZM469.62 114.47h6.66v2.99H469.62ZM479.61 114.47h1.80v2.99H479.61ZM481.27 118.21h1.80v2.99H481.27ZM482.94 125.69h3.33v2.99H482.94ZM486.27 118.21h3.33v2.99H486.27ZM489.60 114.47h3.33v2.99H489.60ZM492.93 106.99h3.33v2.99H492.93ZM496.26 118.21h3.33v2.99H496.26ZM499.59 133.17h3.33v2.99H499.59ZM502.92 144.39h3.33v2.99H502.92ZM506.25 133.17h3.33v2.99H506.25ZM509.58 125.69h3.33v2.99H509.58ZM512.91 106.99h3.33v2.99H512.91ZM516.24 118.21h5.00v2.99H516.24ZM521.24 114.47h1.80v2.99H521.24ZM522.91 114.47h8.33v2.99H522.91ZM532.90 114.47h3.33v2.99H532.90ZM534.56 118.21h1.80v2.99H534.56ZM536.23 125.69h5.00v2.99H536.23ZM539.56 118.21h5.00v2.99H539.56ZM544.55 114.47h1.80v2.99H544.55ZM546.22 106.99h3.33v2.99H546.22ZM549.55 114.47h3.33v2.99H549.55ZM552.88 133.17h3.33v2.99H552.88ZM556.21 114.47h3.33v2.99H556.21ZM559.54 106.99h3.33v2.99H559.54ZM562.87 99.51h5.00v2.99H562.87ZM566.20 95.77h3.33v2.99H566.20ZM569.53 106.99h6.66v2.99H569.53ZM577.86 114.47h11.66v2.99H577.86Z" fill="#357f78"/></svg>
