<svg xmlns="http://www.w3.org/2000/svg" viewBox="0 0 640 300" role="img" aria-label="Melody and accompaniment piano roll"><rect x="0" y="286.11" width="640" height="3.95" fill="#273447" opacity=".025"/><rect x="0" y="278.22" width="640" height="3.95" fill="#273447" opacity=".025"/><rect x="0" y="270.33" width="640" height="3.95" fill="#273447" opacity=".025"/><path d="M0 262.44H640" stroke="#273447" opacity=".08" stroke-width=".8"/><rect x="0" y="258.49" width="640" height="3.95" fill="#273447" opacity=".025"/><rect x="0" y="250.60" width="640" height="3.95" fill="#273447" opacity=".025"/><rect x="0" y="238.77" width="640" height="3.95" fill="#273447" opacity=".025"/><rect x="0" y="230.88" width="640" height="3.95" fill="#273447" opacity=".025"/><rect x="0" y="222.99" width="640" height="3.95" fill="#273447" opacity=".025"/><path d="M0 215.10H640" stroke="#273447" opacity=".08" stroke-width=".8"/><rect x="0" y="211.15" width="640" height="3.95" fill="#273447" opacity=".025"/><rect x="0" y="203.26" width="640" height="3.95" fill="#273447" opacity=".025"/><rect x="0" y="191.42" width="640" height="3.95" fill="#273447" opacity=".025"/><rect x="0" y="183.53" width="640" height="3.95" fill="#273447" opacity=".025"/><rect x="0" y="175.64" width="640" height="3.95" fill="#273447" opacity=".025"/><path d="M0 167.75H640" stroke="#273447" opacity=".08" stroke-width=".8"/><rect x="0" y="163.81" width="640" height="3.95" fill="#273447" opacity=".025"/><rect x="0" y="155.92" width="640" height="3.95" fill="#273447" opacity=".025"/><rect x="0" y="144.08" width="640" height="3.95" fill="#273447" opacity=".025"/><rect x="0" y="136.19" width="640" height="3.95" fill="#273447" opacity=".025"/><rect x="0" y="128.30" width="640" height="3.95" fill="#273447" opacity=".025"/><path d="M0 120.41H640" stroke="#273447" opacity=".08" stroke-width=".8"/><rect x="0" y="116.47" width="640" height="3.95" fill="#273447" opacity=".025"/><rect x="0" y="108.58" width="640" height="3.95" fill="#273447" opacity=".025"/><rect x="0" y="96.74" width="640" height="3.95" fill="#273447" opacity=".025"/><rect x="0" y="88.85" width="640" height="3.95" fill="#273447" opacity=".025"/><rect x="0" y="80.96" width="640" height="3.95" fill="#273447" opacity=".025"/><path d="M0 73.07H640" stroke="#273447" opacity=".08" stroke-width=".8"/><rect x="0" y="69.12" width="640" height="3.95" fill="#273447" opacity=".025"/><rect x="0" y="61.23" width="640" height="3.95" fill="#273447" opacity=".025"/><rect x="0" y="49.40" width="640" height="3.95" fill="#273447" opacity=".025"/><rect x="0" y="41.51" width="640" height="3.95" fill="#273447" opacity=".025"/><rect x="0" y="33.62" width="640" height="3.95" fill="#273447" opacity=".025"/><path d="M0 25.73H640" stroke="#273447" opacity=".08" stroke-width=".8"/><rect x="0" y="21.78" width="640" height="3.95" fill="#273447" opacity=".025"/><rect x="0" y="13.89" width="640" height="3.95" fill="#273447" opacity=".025"/><path d="M0.00 0V300" stroke="#273447" opacity=".13" stroke-width=".8"/><path d="M11.44 0V300" stroke="#273447" opacity=".05" stroke-width=".8"/><path d="M22.88 0V300" stroke="#273447" opacity=".05" stroke-width=".8"/><path d="M34.32 0V300" stroke="#273447" opacity=".05" stroke-width=".8"/><path d="M45.76 0V300" stroke="#273447" opacity=".13" stroke-width=".8"/><path d="M57.20 0V300" stroke="#273447" opacity=".05" stroke-width=".8"/><path d="M68.64 0V300" stroke="#273447" opacity=".05" stroke-width=".8"/><path d="M80.08 0V300" stroke="#273447" opacity=".05" stroke-width=".8"/><path d="M91.52 0V300" stroke="#273447" opacity=".13" stroke-width=".8"/><path d="M102.97 0V300" stroke="#273447" opacity=".05" stroke-width=".8"/><path d="M114.41 0V300" stroke="#273447" opacity=".05" stroke-width=".8"/><path d="M125.85 0V300" stroke="#273447" opacity=".05" stroke-width=".8"/><path d="M137.29 0V300" stroke="#273447" opacity=".13" stroke-width=".8"/><path d="M148.73 0V300" stroke="#273447" opacity=".05" stroke-width=".8"/><path d="M160.17 0V300" stroke="#273447" opacity=".05" stroke-width=".8"/><path d="M171.61 0V300" stroke="#273447" opacity=".05" stroke-width=".8"/><path d="M183.05 0V300" stroke="#273447" opacity=".13" stroke-width=".8"/><path d="M194.49 0V300" stroke="#273447" opacity=".05" stroke-width=".8"/><path d="M205.93 0V300" stroke="#273447" opacity=".05" stroke-width=".8"/><path d="M217.37 0V300" stroke="#273447" opacity=".05" stroke-width=".8"/><path d="M228.81 0V300" stroke="#273447" opacity=".13" stroke-width=".8"/><path d="M240.25 0V300" stroke="#273447" opacity=".05" stroke-width=".8"/><path d="M251.69 0V300" stroke="#273447" opacity=".05" stroke-width=".8"/><path d="M263.13 0V300" stroke="#273447" opacity=".05" stroke-width=".8"/><path d="M274.57 0V300" stroke="#273447" opacity=".13" stroke-width=".8"/><path d="M286.01 0V300" stroke="#273447" opacity=".05" stroke-width=".8"/><path d="M297.46 0V300" stroke="#273447" opacity=".05" stroke-width=".8"/><path d="M308.90 0V300" stroke="#273447" opacity=".05" stroke-width=".8"/><path d="M320.34 0V300" stroke="#273447" opacity=".13" stroke-width=".8"/><path d="M331.78 0V300" stroke="#273447" opacity=".05" stroke-width=".8"/><path d="M343.22 0V300" stroke="#273447" opacity=".05" stroke-width=".8"/><path d="M354.66 0V300" stroke="#273447" opacity=".05" stroke-width=".8"/><path d="M366.10 0V300" stroke="#273447" opacity=".13" stroke-width=".8"/><path d="M377.54 0V300" stroke="#273447" opacity=".05" stroke-width=".8"/><path d="M388.98 0V300" stroke="#273447" opacity=".05" stroke-width=".8"/><path d="M400.42 0V300" stroke="#273447" opacity=".05" stroke-width=".8"/><path d="M411.86 0V300" stroke="#273447" opacity=".13" stroke-width=".8"/><path d="M423.30 0V300" stroke="#273447" opacity=".05" stroke-width=".8"/><path d="M434.74 0V300" stroke="#273447" opacity=".05" stroke-width=".8"/><path d="M446.18 0V300" stroke="#273447" opacity=".05" stroke-width=".8"/><path d="M457.62 0V300" stroke="#273447" opacity=".13" stroke-width=".8"/><path d="M469.06 0V300" stroke="#273447" opacity=".05" stroke-width=".8"/><path d="M480.50 0V300" stroke="#273447" opacity=".05" stroke-width=".8"/><path d="M491.94 0V300" stroke="#273447" opacity=".05" stroke-width=".8"/><path d="M503.39 0V300" stroke="#273447" opacity=".13" stroke-width=".8"/><path d="M514.83 0V300" stroke="#273447" opacity=".05" stroke-width=".8"/><path d="M526.27 0V300" stroke="#273447" opacity=".05" stroke-width=".8"/><path d="M537.71 0V300" stroke="#273447" opacity=".05" stroke-width=".8"/><path d="M549.15 0V300" stroke="#273447" opacity=".13" stroke-width=".8"/><path d="M560.59 0V300" stroke="#273447" opacity=".05" stroke-width=".8"/><path d="M572.03 0V300" stroke="#273447" opacity=".05" stroke-width=".8"/><path d="M583.47 0V300" stroke="#273447" opacity=".05" stroke-width=".8"/><path d="M594.91 0V300" stroke="#273447" opacity=".13" stroke-width=".8"/><path d="M606.35 0V300" stroke="#273447" opacity=".05" stroke-width=".8"/><path d="M617.79 0V300" stroke="#273447" opacity=".05" stroke-width=".8"/><path d="M629.23 0V300" stroke="#273447" opacity=".05" stroke-width=".8"/><path d="M47.67 226.93h11.44v3.16H47.67ZM61.02 226.93h1.91v3.16H61.02ZM62.92 219.04h1.91v3.16H62.92ZM64.83 215.10h1.91v3.16H64.83ZM66.74 207.21h3.81v3.16H66.74ZM70.55 195.37h1.91v3.16H70.55ZM72.46 179.59h7.63v3.16H72.46ZM80.08 226.93h11.44v3.16H80.08ZM91.52 242.71h3.81v3.16H91.52ZM95.34 262.44h3.81v3.16H95.34ZM99.15 242.71h3.81v3.16H99.15ZM102.97 246.66h3.81v3.16H102.97ZM106.78 254.55h3.81v3.16H106.78ZM110.59 246.66h3.81v3.16H110.59ZM114.41 274.27h7.63v3.16H114.41ZM122.03 195.37h1.91v3.16H122.03ZM123.94 195.37h1.91v3.16H123.94ZM125.85 195.37h1.91v3.16H125.85ZM127.75 215.10h1.91v3.16H127.75ZM129.66 195.37h1.91v3.16H129.66ZM131.57 195.37h1.91v3.16H131.57ZM133.47 195.37h1.91v3.16H133.47ZM135.38 215.10h1.91v3.16H135.38ZM137.29 195.37h1.91v3.16H137.29ZM139.19 207.21h1.91v3.16H139.19ZM141.10 226.93h1.91v3.16H141.10ZM143.01 207.21h1.91v3.16H143.01ZM144.91 195.37h1.91v3.16H144.91ZM146.82 195.37h1.91v3.16H146.82ZM148.73 195.37h1.91v3.16H148.73ZM150.63 207.21h1.91v3.16H150.63ZM152.54 226.93h1.91v3.16H152.54ZM154.45 226.93h1.91v3.16H154.45ZM156.35 215.10h1.91v3.16H156.35ZM158.26 215.10h1.91v3.16H158.26ZM160.17 207.21h1.91v3.16H160.17ZM162.07 207.21h1.91v3.16H162.07ZM163.98 226.93h1.91v3.16H163.98ZM165.89 226.93h1.91v3.16H165.89ZM167.79 215.10h1.91v3.16H167.79ZM169.70 242.71h1.91v3.16H169.70ZM171.61 219.04h1.91v3.16H171.61ZM173.52 215.10h1.91v3.16H173.52ZM175.42 215.10h1.91v3.16H175.42ZM177.33 199.32h1.91v3.16H177.33ZM179.24 215.10h1.91v3.16H179.24ZM181.14 226.93h1.91v3.16H181.14ZM183.05 226.93h1.91v3.16H183.05ZM184.96 226.93h1.91v3.16H184.96ZM186.86 215.10h1.91v3.16H186.86ZM188.77 215.10h1.91v3.16H188.77ZM190.68 207.21h1.91v3.16H190.68ZM192.58 207.21h1.91v3.16H192.58ZM194.49 226.93h1.91v3.16H194.49ZM196.40 226.93h1.91v3.16H196.40ZM198.30 215.10h1.91v3.16H198.30ZM200.21 242.71h1.91v3.16H200.21ZM202.12 219.04h1.91v3.16H202.12ZM204.02 215.10h1.91v3.16H204.02ZM205.93 215.10h1.91v3.16H205.93ZM207.84 199.32h1.91v3.16H207.84ZM209.74 215.10h1.91v3.16H209.74ZM211.65 199.32h1.91v3.16H211.65ZM213.56 215.10h1.91v3.16H213.56ZM215.46 226.93h1.91v3.16H215.46ZM217.37 246.66h1.91v3.16H217.37ZM219.28 226.93h1.91v3.16H219.28ZM221.18 215.10h1.91v3.16H221.18ZM223.09 215.10h1.91v3.16H223.09ZM225.00 226.93h1.91v3.16H225.00ZM226.90 234.82h1.91v3.16H226.90ZM228.81 234.82h1.91v3.16H228.81ZM230.72 242.71h1.91v3.16H230.72ZM232.62 234.82h1.91v3.16H232.62ZM234.53 246.66h1.91v3.16H234.53ZM236.44 242.71h1.91v3.16H236.44ZM238.35 254.55h1.91v3.16H238.35ZM240.25 226.93h1.91v3.16H240.25ZM242.16 254.55h1.91v3.16H242.16ZM244.07 242.71h3.81v3.16H244.07ZM247.88 215.10h1.91v3.16H247.88ZM249.79 234.82h1.91v3.16H249.79ZM251.69 226.93h1.91v3.16H251.69ZM253.60 199.32h1.91v3.16H253.60ZM255.51 226.93h1.91v3.16H255.51ZM257.41 215.10h1.91v3.16H257.41ZM259.32 254.55h1.91v3.16H259.32ZM261.23 246.66h1.91v3.16H261.23ZM263.13 254.55h1.91v3.16H263.13ZM265.04 246.66h1.91v3.16H265.04ZM266.95 254.55h1.91v3.16H266.95ZM268.85 234.82h1.91v3.16H268.85ZM270.76 254.55h1.91v3.16H270.76ZM272.67 226.93h1.91v3.16H272.67ZM274.57 234.82h1.91v3.16H274.57ZM276.48 242.71h1.91v3.16H276.48ZM278.39 234.82h1.91v3.16H278.39ZM280.29 246.66h1.91v3.16H280.29ZM282.20 242.71h1.91v3.16H282.20ZM284.11 254.55h1.91v3.16H284.11ZM286.01 226.93h1.91v3.16H286.01ZM287.92 254.55h1.91v3.16H287.92ZM289.83 254.55h1.91v3.16H289.83ZM291.73 234.82h1.91v3.16H291.73ZM293.64 246.66h1.91v3.16H293.64ZM295.55 219.04h1.91v3.16H295.55ZM297.45 246.66h1.91v3.16H297.45ZM299.36 234.82h1.91v3.16H299.36ZM301.27 262.44h1.91v3.16H301.27ZM303.18 226.93h1.91v3.16H303.18ZM305.08 215.10h1.91v3.16H305.08ZM306.99 242.71h1.91v3.16H306.99ZM308.90 219.04h1.91v3.16H308.90ZM310.80 215.10h1.91v3.16H310.80ZM312.71 226.93h1.91v3.16H312.71ZM314.62 215.10h1.91v3.16H314.62ZM316.52 226.93h1.91v3.16H316.52ZM318.43 215.10h1.91v3.16H318.43ZM320.34 226.93h1.91v3.16H320.34ZM322.24 207.21h1.91v3.16H322.24ZM324.15 226.93h1.91v3.16H324.15ZM326.06 199.32h1.91v3.16H326.06ZM327.96 215.10h1.91v3.16H327.96ZM329.87 242.71h1.91v3.16H329.87ZM331.78 219.04h1.91v3.16H331.78ZM333.68 215.10h1.91v3.16H333.68ZM335.59 226.93h1.91v3.16H335.59ZM337.50 262.44h1.91v3.16H337.50ZM339.40 234.82h1.91v3.16H339.40ZM341.31 246.66h1.91v3.16H341.31ZM343.22 234.82h1.91v3.16H343.22ZM345.12 215.10h1.91v3.16H345.12ZM347.03 222.99h1.91v3.16H347.03ZM348.94 207.21h1.91v3.16H348.94ZM350.84 199.32h1.91v3.16H350.84ZM352.75 195.37h1.91v3.16H352.75ZM354.66 199.32h1.91v3.16H354.66ZM356.56 215.10h1.91v3.16H356.56ZM358.47 199.32h1.91v3.16H358.47ZM360.38 187.48h1.91v3.16H360.38ZM362.28 175.64h1.91v3.16H362.28ZM364.19 179.59h1.91v3.16H364.19ZM366.10 175.64h1.91v3.16H366.10ZM368.00 179.59h1.91v3.16H368.00ZM369.91 187.48h1.91v3.16H369.91ZM371.82 195.37h1.91v3.16H371.82ZM373.73 199.32h1.91v3.16H373.73ZM375.63 187.48h1.91v3.16H375.63ZM377.54 195.37h1.91v3.16H377.54ZM379.45 179.59h1.91v3.16H379.45ZM381.35 187.48h1.91v3.16H381.35ZM383.26 195.37h1.91v3.16H383.26ZM385.17 195.37h1.91v3.16H385.17ZM387.07 199.32h1.91v3.16H387.07ZM388.98 222.99h1.91v3.16H388.98ZM390.89 199.32h1.91v3.16H390.89ZM392.79 242.71h1.91v3.16H392.79ZM394.70 215.10h1.91v3.16H394.70ZM396.61 234.82h1.91v3.16H396.61ZM398.51 242.71h1.91v3.16H398.51ZM400.42 234.82h1.91v3.16H400.42ZM402.33 226.93h1.91v3.16H402.33ZM404.23 222.99h1.91v3.16H404.23ZM406.14 215.10h1.91v3.16H406.14ZM408.05 207.21h1.91v3.16H408.05ZM409.95 199.32h1.91v3.16H409.95ZM411.86 215.10h1.91v3.16H411.86ZM413.77 199.32h1.91v3.16H413.77ZM415.67 187.48h1.91v3.16H415.67ZM417.58 167.75h1.91v3.16H417.58ZM419.49 175.64h1.91v3.16H419.49ZM421.39 179.59h1.91v3.16H421.39ZM423.30 187.48h1.91v3.16H423.30ZM425.21 195.37h1.91v3.16H425.21ZM427.11 226.93h1.91v3.16H427.11ZM430.93 215.10h1.91v3.16H430.93ZM434.74 195.37h1.91v3.16H434.74ZM438.56 195.37h1.91v3.16H438.56ZM442.37 215.10h1.91v3.16H442.37ZM444.28 242.71h1.91v3.16H444.28ZM446.18 234.82h1.91v3.16H446.18ZM448.09 242.71h1.91v3.16H448.09ZM450.00 215.10h1.91v3.16H450.00ZM451.90 199.32h1.91v3.16H451.90ZM453.81 195.37h1.91v3.16H453.81ZM455.72 179.59h1.91v3.16H455.72ZM457.62 199.32h1.91v3.16H457.62ZM459.53 207.21h1.91v3.16H459.53ZM461.44 215.10h1.91v3.16H461.44ZM463.34 222.99h1.91v3.16H463.34ZM465.25 226.93h1.91v3.16H465.25ZM467.16 234.82h1.91v3.16H467.16ZM469.06 226.93h1.91v3.16H469.06ZM470.97 222.99h1.91v3.16H470.97ZM472.88 226.93h1.91v3.16H472.88ZM474.78 195.37h1.91v3.16H474.78ZM476.69 215.10h1.91v3.16H476.69ZM478.60 226.93h1.91v3.16H478.60ZM480.50 199.32h1.91v3.16H480.50ZM482.41 187.48h1.91v3.16H482.41ZM484.32 199.32h1.91v3.16H484.32ZM486.22 215.10h1.91v3.16H486.22ZM488.13 207.21h1.91v3.16H488.13ZM490.04 199.32h1.91v3.16H490.04ZM491.94 215.10h1.91v3.16H491.94ZM493.85 222.99h1.91v3.16H493.85ZM495.76 199.32h1.91v3.16H495.76ZM497.66 195.37h1.91v3.16H497.66ZM499.57 207.21h1.91v3.16H499.57ZM501.48 215.10h1.91v3.16H501.48ZM503.38 234.82h1.91v3.16H503.38ZM505.29 242.71h1.91v3.16H505.29ZM507.20 226.93h1.91v3.16H507.20ZM509.11 215.10h1.91v3.16H509.11ZM511.01 195.37h1.91v3.16H511.01ZM512.92 175.64h1.91v3.16H512.92ZM514.83 179.59h1.91v3.16H514.83ZM516.73 187.48h1.91v3.16H516.73ZM518.64 195.37h1.91v3.16H518.64ZM520.55 179.59h1.91v3.16H520.55ZM522.45 167.75h1.91v3.16H522.45ZM524.36 179.59h1.91v3.16H524.36ZM526.27 195.37h1.91v3.16H526.27ZM528.17 187.48h1.91v3.16H528.17ZM530.08 195.37h1.91v3.16H530.08ZM531.99 179.59h1.91v3.16H531.99ZM533.89 167.75h1.91v3.16H533.89ZM535.80 179.59h1.91v3.16H535.80ZM537.71 167.75h1.91v3.16H537.71ZM539.61 187.48h1.91v3.16H539.61ZM541.52 151.97h1.91v3.16H541.52ZM543.43 187.48h1.91v3.16H543.43ZM545.33 159.86h1.91v3.16H545.33ZM547.24 207.21h1.91v3.16H547.24ZM549.15 187.48h1.91v3.16H549.15ZM552.96 167.75h1.91v3.16H552.96ZM556.77 159.86h1.91v3.16H556.77ZM560.59 151.97h1.91v3.16H560.59ZM564.40 195.37h1.91v3.16H564.40ZM566.31 179.59h1.91v3.16H566.31ZM568.21 167.75h1.91v3.16H568.21ZM570.12 151.97h1.91v3.16H570.12ZM572.03 175.64h1.91v3.16H572.03ZM573.94 159.86h1.91v3.16H573.94ZM575.84 148.03h1.91v3.16H575.84ZM577.75 175.64h1.91v3.16H577.75ZM579.66 175.64h1.91v3.16H579.66ZM581.56 159.86h1.91v3.16H581.56ZM583.47 175.64h1.91v3.16H583.47ZM585.38 195.37h1.91v3.16H585.38ZM587.28 159.86h1.91v3.16H587.28ZM589.19 207.21h1.91v3.16H589.19ZM591.10 226.93h1.91v3.16H591.10ZM593.00 195.37h1.91v3.16H593.00ZM594.91 187.48h1.91v3.16H594.91ZM596.82 199.32h1.91v3.16H596.82ZM598.72 195.37h1.91v3.16H598.72ZM600.63 187.48h1.91v3.16H600.63ZM602.54 195.37h1.91v3.16H602.54ZM604.44 175.64h1.91v3.16H604.44ZM606.35 159.86h1.91v3.16H606.35ZM608.26 195.37h1.91v3.16H608.26ZM610.16 199.32h1.91v3.16H610.16ZM612.07 207.21h1.91v3.16H612.07ZM613.98 215.10h1.91v3.16H613.98ZM615.88 222.99h1.80v3.16H615.88Z" fill="#c5824a"/><path d="M0.00 132.25h1.91v3.16H0.00ZM1.91 132.25h2.86v3.16H1.91ZM3.81 120.41h1.80v3.16H3.81ZM5.72 120.41h1.91v3.16H5.72ZM7.63 100.68h1.80v3.16H7.63ZM9.53 100.68h1.91v3.16H9.53ZM11.44 104.63h1.80v3.16H11.44ZM13.35 104.63h1.91v3.16H13.35ZM15.25 112.52h1.91v3.16H15.25ZM17.16 132.25h1.91v3.16H17.16ZM19.07 112.52h9.53v3.16H19.07ZM30.51 112.52h1.80v3.16H30.51ZM32.41 112.52h1.91v3.16H32.41ZM34.32 104.63h1.80v3.16H34.32ZM36.23 104.63h1.91v3.16H36.23ZM38.14 84.90h1.80v3.16H38.14ZM40.04 84.90h1.91v3.16H40.04ZM41.95 104.63h1.80v3.16H41.95ZM43.86 104.63h1.91v3.16H43.86ZM45.76 120.41h1.91v3.16H45.76ZM47.67 132.25h2.86v3.16H47.67ZM49.58 120.41h7.63v3.16H49.58ZM61.02 132.25h1.80v3.16H61.02ZM62.92 132.25h1.91v3.16H62.92ZM64.83 120.41h1.91v3.16H64.83ZM67.69 120.41h1.80v3.16H67.69ZM68.64 100.68h1.80v3.16H68.64ZM70.55 100.68h1.91v3.16H70.55ZM72.46 104.63h1.80v3.16H72.46ZM74.36 104.63h1.91v3.16H74.36ZM76.27 112.52h1.91v3.16H76.27ZM78.18 132.25h1.91v3.16H78.18ZM80.08 112.52h2.86v3.16H80.08ZM83.90 112.52h1.91v3.16H83.90ZM85.80 104.63h1.80v3.16H85.80ZM87.71 104.63h2.86v3.16H87.71ZM91.52 108.58h1.91v3.16H91.52ZM93.43 104.63h1.91v3.16H93.43ZM95.34 84.90h4.77v3.16H95.34ZM100.10 92.79h2.86v3.16H100.10ZM102.97 100.68h8.58v3.16H102.97ZM122.03 132.25h1.80v3.16H122.03ZM123.94 132.25h1.91v3.16H123.94ZM125.85 120.41h1.91v3.16H125.85ZM127.75 120.41h1.91v3.16H127.75ZM129.66 100.68h1.80v3.16H129.66ZM131.57 100.68h1.91v3.16H131.57ZM133.47 104.63h1.80v3.16H133.47ZM135.38 104.63h1.91v3.16H135.38ZM137.29 112.52h1.91v3.16H137.29ZM139.19 132.25h1.91v3.16H139.19ZM141.10 112.52h9.53v3.16H141.10ZM152.54 112.52h1.91v3.16H152.54ZM154.45 112.52h1.91v3.16H154.45ZM156.35 104.63h1.80v3.16H156.35ZM158.26 104.63h1.91v3.16H158.26ZM160.17 84.90h1.80v3.16H160.17ZM162.07 84.90h1.91v3.16H162.07ZM163.98 104.63h1.80v3.16H163.98ZM165.89 104.63h3.81v3.16H165.89ZM169.70 132.25h1.91v3.16H169.70ZM171.61 120.41h9.53v3.16H171.61ZM183.05 132.25h1.91v3.16H183.05ZM184.96 132.25h2.86v3.16H184.96ZM186.86 120.41h1.91v3.16H186.86ZM188.77 120.41h1.91v3.16H188.77ZM190.68 100.68h1.80v3.16H190.68ZM192.58 100.68h1.91v3.16H192.58ZM194.49 104.63h1.80v3.16H194.49ZM196.40 104.63h2.86v3.16H196.40ZM199.26 100.68h1.80v3.16H199.26ZM200.21 132.25h2.86v3.16H200.21ZM202.12 112.52h1.91v3.16H202.12ZM205.93 112.52h1.91v3.16H205.93ZM207.84 100.68h1.91v3.16H207.84ZM209.74 104.63h2.86v3.16H209.74ZM213.56 108.58h1.91v3.16H213.56ZM215.46 104.63h1.91v3.16H215.46ZM217.37 84.90h3.81v3.16H217.37ZM221.18 92.79h3.81v3.16H221.18ZM225.00 100.68h5.72v3.16H225.00ZM234.53 84.90h1.91v3.16H234.53ZM236.44 92.79h1.80v3.16H236.44ZM237.39 100.68h2.86v3.16H237.39ZM240.25 104.63h1.91v3.16H240.25ZM242.16 112.52h1.80v3.16H242.16ZM244.07 112.52h1.80v3.16H244.07ZM245.97 112.52h1.80v3.16H245.97ZM247.88 112.52h1.80v3.16H247.88ZM249.79 112.52h1.91v3.16H249.79ZM251.69 84.90h3.81v3.16H251.69ZM255.51 92.79h5.72v3.16H255.51ZM265.04 92.79h1.91v3.16H265.04ZM266.95 100.68h1.80v3.16H266.95ZM267.90 104.63h2.86v3.16H267.90ZM270.76 112.52h1.91v3.16H270.76ZM272.67 120.41h1.80v3.16H272.67ZM274.57 120.41h1.80v3.16H274.57ZM276.48 120.41h1.91v3.16H276.48ZM278.39 132.25h1.91v3.16H278.39ZM280.29 120.41h1.91v3.16H280.29ZM282.20 92.79h3.81v3.16H282.20ZM286.01 100.68h6.67v3.16H286.01ZM295.55 100.68h1.91v3.16H295.55ZM297.45 112.52h1.80v3.16H297.45ZM299.36 112.52h1.91v3.16H299.36ZM301.27 120.41h1.91v3.16H301.27ZM303.18 132.25h3.81v3.16H303.18ZM306.99 148.03h1.91v3.16H306.99ZM308.90 112.52h6.67v3.16H308.90ZM316.52 112.52h1.91v3.16H316.52ZM320.34 112.52h1.80v3.16H320.34ZM322.24 112.52h1.80v3.16H322.24ZM324.15 112.52h1.80v3.16H324.15ZM325.10 100.68h2.86v3.16H325.10ZM327.96 112.52h1.91v3.16H327.96ZM329.87 100.68h1.91v3.16H329.87ZM331.78 112.52h1.91v3.16H331.78ZM333.68 100.68h1.91v3.16H333.68ZM335.59 100.68h1.80v3.16H335.59ZM337.50 100.68h1.80v3.16H337.50ZM339.40 100.68h1.91v3.16H339.40ZM341.31 84.90h1.91v3.16H341.31ZM343.22 92.79h1.91v3.16H343.22ZM347.03 92.79h5.72v3.16H347.03ZM354.66 120.41h1.91v3.16H354.66ZM356.56 84.90h1.91v3.16H356.56ZM358.47 92.79h1.91v3.16H358.47ZM359.42 100.68h2.86v3.16H359.42ZM362.28 92.79h1.91v3.16H362.28ZM364.19 84.90h1.91v3.16H364.19ZM366.10 120.41h1.91v3.16H366.10ZM368.00 92.79h1.91v3.16H368.00ZM369.91 84.90h1.91v3.16H369.91ZM373.73 120.41h1.91v3.16H373.73ZM375.63 92.79h2.86v3.16H375.63ZM377.54 84.90h1.91v3.16H377.54ZM381.35 92.79h1.80v3.16H381.35ZM383.26 92.79h1.91v3.16H383.26ZM385.17 84.90h1.80v3.16H385.17ZM386.12 80.96h2.86v3.16H386.12ZM388.98 84.90h1.91v3.16H388.98ZM390.89 92.79h1.91v3.16H390.89ZM392.79 104.63h1.91v3.16H392.79ZM394.70 100.68h1.91v3.16H394.70ZM396.61 132.25h1.91v3.16H396.61ZM398.51 112.52h1.91v3.16H398.51ZM400.42 100.68h1.91v3.16H400.42ZM404.23 132.25h1.91v3.16H404.23ZM406.14 112.52h1.91v3.16H406.14ZM408.05 104.63h1.91v3.16H408.05ZM411.86 104.63h1.80v3.16H411.86ZM413.77 104.63h1.91v3.16H413.77ZM415.67 84.90h1.80v3.16H415.67ZM416.63 73.07h2.86v3.16H416.63ZM419.49 84.90h1.91v3.16H419.49ZM421.39 100.68h1.91v3.16H421.39ZM425.21 108.58h1.80v3.16H425.21ZM427.11 80.96h1.80v3.16H427.11ZM429.02 80.96h2.86v3.16H429.02ZM434.74 73.07h2.86v3.16H434.74ZM436.65 80.96h1.91v3.16H436.65ZM438.56 84.90h1.91v3.16H438.56ZM440.46 120.41h1.91v3.16H440.46ZM442.37 84.90h1.80v3.16H442.37ZM443.32 84.90h4.77v3.16H443.32ZM450.00 80.96h1.91v3.16H450.00ZM451.90 84.90h1.91v3.16H451.90ZM453.81 92.79h1.91v3.16H453.81ZM455.72 124.36h1.91v3.16H455.72ZM457.62 92.79h1.80v3.16H457.62ZM458.58 92.79h4.77v3.16H458.58ZM465.25 92.79h2.86v3.16H465.25ZM467.16 100.68h1.91v3.16H467.16ZM469.06 84.90h1.91v3.16H469.06ZM472.88 92.79h1.91v3.16H472.88ZM474.78 100.68h1.91v3.16H474.78ZM476.69 84.90h2.86v3.16H476.69ZM480.50 92.79h3.81v3.16H480.50ZM484.32 100.68h1.91v3.16H484.32ZM486.22 84.90h1.91v3.16H486.22ZM488.13 120.41h1.91v3.16H488.13ZM490.04 92.79h1.91v3.16H490.04ZM491.94 84.90h1.91v3.16H491.94ZM495.76 120.41h1.91v3.16H495.76ZM497.66 92.79h1.91v3.16H497.66ZM499.57 84.90h1.91v3.16H499.57ZM503.38 92.79h1.80v3.16H503.38ZM505.29 92.79h1.91v3.16H505.29ZM507.20 84.90h1.80v3.16H507.20ZM508.15 80.96h3.81v3.16H508.15ZM511.97 84.90h1.80v3.16H511.97ZM512.92 92.79h1.91v3.16H512.92ZM514.83 104.63h1.91v3.16H514.83ZM516.73 100.68h1.91v3.16H516.73ZM518.64 132.25h1.91v3.16H518.64ZM520.55 112.52h1.91v3.16H520.55ZM522.45 100.68h1.91v3.16H522.45ZM526.27 132.25h2.86v3.16H526.27ZM528.17 112.52h1.91v3.16H528.17ZM530.08 104.63h1.91v3.16H530.08ZM533.89 104.63h1.80v3.16H533.89ZM535.80 104.63h1.91v3.16H535.80ZM537.71 84.90h1.91v3.16H537.71ZM539.61 73.07h2.86v3.16H539.61ZM542.47 84.90h1.80v3.16H542.47ZM543.43 100.68h1.91v3.16H543.43ZM545.33 104.63h1.80v3.16H545.33ZM547.24 112.52h1.91v3.16H547.24ZM549.15 80.96h1.80v3.16H549.15ZM550.10 80.96h4.77v3.16H550.10ZM556.77 73.07h1.91v3.16H556.77ZM558.68 80.96h1.91v3.16H558.68ZM560.59 84.90h1.91v3.16H560.59ZM562.49 120.41h1.91v3.16H562.49ZM565.35 84.90h3.81v3.16H565.35ZM572.03 80.96h1.91v3.16H572.03ZM573.94 84.90h1.91v3.16H573.94ZM575.84 100.68h1.91v3.16H575.84ZM577.75 124.36h1.91v3.16H577.75ZM579.66 92.79h1.80v3.16H579.66ZM580.61 92.79h12.39v3.16H580.61ZM594.91 84.90h1.91v3.16H594.91ZM596.82 100.68h1.80v3.16H596.82ZM598.72 100.68h1.91v3.16H598.72ZM600.63 84.90h2.86v3.16H600.63ZM603.49 92.79h4.77v3.16H603.49ZM608.26 100.68h7.63v3.16H608.26Z" fill="#357f78"/></svg>
